<?xml version="1.0" standalone="no"?><!DOCTYPE svg PUBLIC "-//W3C//DTD SVG 1.1//EN" "http://www.w3.org/Graphics/SVG/1.1/DTD/svg11.dtd"><svg t="1494916588525" class="icon" style="" viewBox="0 0 1024 1024" version="1.1" xmlns="http://www.w3.org/2000/svg" p-id="6148" xmlns:xlink="http://www.w3.org/1999/xlink" width="200" height="200"><defs><style type="text/css"></style></defs><path d="M874.587 519.508L784.92 445.18c-14.31-11.866-26.043-6.351-26.043 12.247v175.497c0 18.603 11.399 23.732 25.312 11.398l91.135-80.783c13.913-12.346 13.591-32.154-0.737-44.032zM849.86 254.737v-30.645s0-15.329-15.323-15.329H482.064c-15.328 0-15.334 15.329-15.334 15.329v30.645s0 15.323 15.334 15.323h114.932l-0.117 605.344s0.117 15.323 15.44 15.323h30.645c15.322 0 15.334-15.323 15.334-15.323V270.06h176.24c15.323 0 15.323-15.323 15.323-15.323zM283.078 934.558c0 25.563 16.13 33.155 35.81 16.838l119.242-98.849 0.614-0.509c1.029-1.105 1.69-2.561 1.69-4.193 0-0.813-0.176-1.59-0.462-2.304 0 0-24.049-40.137-25.037-40.962-1.07-0.9-2.404-1.503-3.924-1.503a6.01 6.01 0 0 0-2.246 0.45l-2.31 1.632-62.32 44.02V696.49h61.302c61.309 0 61.297-62.162 61.297-62.162V354.625s0-62.156-61.297-62.156h-61.302V174.818c0.544 0 63.507 43.763 64.537 44.09 0.49 0.152 1 0.316 1.544 0.316 1.222 0 2.286-0.485 3.175-1.175 0.854-0.685 26.832-40.272 26.832-40.272a5.363 5.363 0 0 0 0.404-1.989c0-1.269-0.509-2.392-1.252-3.298L318.888 72.6c-19.68-16.31-35.81-8.72-35.81 16.838l-0.251 203.03h-62.262c-60.337 0-60.565 62.157-60.565 62.157l0.421 279.703s-0.193 62.162 61.115 62.162h61.29l0.252 238.068z m122.36-315.763s0 15.533-15.335 15.533h-45.968V354.625h45.968c15.334 0 15.334 15.533 15.334 15.533v248.637z m-122.611 15.533h-45.98c-15.31 0-15.31-15.533-15.31-15.533V370.158s-0.012-15.533 15.31-15.533h45.98v279.703z" p-id="6149" fill="#F77D1B"></path></svg>